<mxfile host="app.diagrams.net" agent="Mozilla/5.0 (Windows NT 10.0; Win64; x64) AppleWebKit/537.36 (KHTML, like Gecko) Chrome/132.0.0.0 Safari/537.36" version="28.2.4">
  <diagram name="第 1 页" id="zQ5DOcV0YgHfXO1Tq6L7">
    <mxGraphModel dx="2344" dy="412" grid="1" gridSize="10" guides="1" tooltips="1" connect="1" arrows="1" fold="1" page="1" pageScale="1" pageWidth="827" pageHeight="1169" math="0" shadow="0">
      <root>
        <mxCell id="0" />
        <mxCell id="1" parent="0" />
        <mxCell id="tamCuUPaQzQzVOTZNICU-41" value="" style="edgeStyle=orthogonalEdgeStyle;rounded=0;orthogonalLoop=1;jettySize=auto;html=1;" parent="1" source="tamCuUPaQzQzVOTZNICU-1" target="tamCuUPaQzQzVOTZNICU-40" edge="1">
          <mxGeometry relative="1" as="geometry" />
        </mxCell>
        <mxCell id="tamCuUPaQzQzVOTZNICU-1" value="read gfr/tdr" style="rounded=0;whiteSpace=wrap;html=1;" parent="1" vertex="1">
          <mxGeometry x="-679.5" width="120" height="60" as="geometry" />
        </mxCell>
        <mxCell id="tamCuUPaQzQzVOTZNICU-10" style="edgeStyle=orthogonalEdgeStyle;rounded=0;orthogonalLoop=1;jettySize=auto;html=1;exitX=0.5;exitY=1;exitDx=0;exitDy=0;" parent="1" source="tamCuUPaQzQzVOTZNICU-3" target="tamCuUPaQzQzVOTZNICU-8" edge="1">
          <mxGeometry relative="1" as="geometry" />
        </mxCell>
        <mxCell id="tamCuUPaQzQzVOTZNICU-11" style="edgeStyle=orthogonalEdgeStyle;rounded=0;orthogonalLoop=1;jettySize=auto;html=1;exitX=1;exitY=0.5;exitDx=0;exitDy=0;" parent="1" source="tamCuUPaQzQzVOTZNICU-3" edge="1">
          <mxGeometry relative="1" as="geometry">
            <mxPoint x="-619.5" y="230" as="targetPoint" />
          </mxGeometry>
        </mxCell>
        <mxCell id="tamCuUPaQzQzVOTZNICU-21" value="while mi" style="edgeLabel;html=1;align=center;verticalAlign=middle;resizable=0;points=[];" parent="tamCuUPaQzQzVOTZNICU-11" vertex="1" connectable="0">
          <mxGeometry x="-0.3075" y="-3" relative="1" as="geometry">
            <mxPoint x="1" as="offset" />
          </mxGeometry>
        </mxCell>
        <mxCell id="tamCuUPaQzQzVOTZNICU-3" value="restore bulk 遍历 mi" style="rhombus;whiteSpace=wrap;html=1;" parent="1" vertex="1">
          <mxGeometry x="-672" y="240" width="105" height="90" as="geometry" />
        </mxCell>
        <mxCell id="tamCuUPaQzQzVOTZNICU-5" style="edgeStyle=orthogonalEdgeStyle;rounded=0;orthogonalLoop=1;jettySize=auto;html=1;" parent="1" source="tamCuUPaQzQzVOTZNICU-4" edge="1">
          <mxGeometry relative="1" as="geometry">
            <mxPoint x="-415.5" y="120" as="targetPoint" />
          </mxGeometry>
        </mxCell>
        <mxCell id="tamCuUPaQzQzVOTZNICU-4" value="mater/region alt.mater" style="rounded=0;whiteSpace=wrap;html=1;" parent="1" vertex="1">
          <mxGeometry x="-475.5" width="120" height="60" as="geometry" />
        </mxCell>
        <mxCell id="tamCuUPaQzQzVOTZNICU-6" value="逻辑不变：&lt;div&gt;通过Mesh与Region类各自的SetAlterName（）控制&lt;/div&gt;" style="rounded=0;whiteSpace=wrap;html=1;" parent="1" vertex="1">
          <mxGeometry x="-475.5" y="120" width="120" height="60" as="geometry" />
        </mxCell>
        <mxCell id="tamCuUPaQzQzVOTZNICU-12" style="edgeStyle=orthogonalEdgeStyle;rounded=0;orthogonalLoop=1;jettySize=auto;html=1;exitX=0.5;exitY=1;exitDx=0;exitDy=0;" parent="1" source="tamCuUPaQzQzVOTZNICU-8" edge="1">
          <mxGeometry relative="1" as="geometry">
            <mxPoint x="-619.5" y="490" as="targetPoint" />
          </mxGeometry>
        </mxCell>
        <mxCell id="tamCuUPaQzQzVOTZNICU-8" value="&lt;span style=&quot;text-align: left;&quot;&gt;Mesh::RestoreMater()&lt;/span&gt;" style="rounded=0;whiteSpace=wrap;html=1;" parent="1" vertex="1">
          <mxGeometry x="-679.5" y="370" width="120" height="60" as="geometry" />
        </mxCell>
        <mxCell id="tamCuUPaQzQzVOTZNICU-16" value="" style="edgeStyle=orthogonalEdgeStyle;rounded=0;orthogonalLoop=1;jettySize=auto;html=1;" parent="1" source="tamCuUPaQzQzVOTZNICU-13" target="tamCuUPaQzQzVOTZNICU-15" edge="1">
          <mxGeometry relative="1" as="geometry" />
        </mxCell>
        <mxCell id="tamCuUPaQzQzVOTZNICU-19" value="new" style="edgeLabel;html=1;align=center;verticalAlign=middle;resizable=0;points=[];" parent="tamCuUPaQzQzVOTZNICU-16" vertex="1" connectable="0">
          <mxGeometry x="0.5" y="-2" relative="1" as="geometry">
            <mxPoint as="offset" />
          </mxGeometry>
        </mxCell>
        <mxCell id="tamCuUPaQzQzVOTZNICU-18" value="" style="edgeStyle=orthogonalEdgeStyle;rounded=0;orthogonalLoop=1;jettySize=auto;html=1;" parent="1" source="tamCuUPaQzQzVOTZNICU-13" target="tamCuUPaQzQzVOTZNICU-17" edge="1">
          <mxGeometry relative="1" as="geometry" />
        </mxCell>
        <mxCell id="tamCuUPaQzQzVOTZNICU-20" value="old" style="edgeLabel;html=1;align=center;verticalAlign=middle;resizable=0;points=[];" parent="tamCuUPaQzQzVOTZNICU-18" vertex="1" connectable="0">
          <mxGeometry x="0.0957" y="2" relative="1" as="geometry">
            <mxPoint as="offset" />
          </mxGeometry>
        </mxCell>
        <mxCell id="tamCuUPaQzQzVOTZNICU-13" value="f-&amp;gt;GetTagGroupVersion()&lt;div&gt;判断新旧&lt;/div&gt;" style="rhombus;whiteSpace=wrap;html=1;" parent="1" vertex="1">
          <mxGeometry x="-707" y="490" width="175" height="80" as="geometry" />
        </mxCell>
        <mxCell id="tamCuUPaQzQzVOTZNICU-15" value="CheckTagGroup(tag_group)&lt;div&gt;&lt;span style=&quot;background-color: transparent; color: light-dark(rgb(0, 0, 0), rgb(255, 255, 255));&quot;&gt;m = mat_region;&lt;/span&gt;&lt;div&gt;&lt;div&gt;material_name_ = tag_group;&lt;/div&gt;&lt;/div&gt;&lt;/div&gt;" style="whiteSpace=wrap;html=1;" parent="1" vertex="1">
          <mxGeometry x="-739.5" y="660" width="180" height="60" as="geometry" />
        </mxCell>
        <mxCell id="tamCuUPaQzQzVOTZNICU-17" value="通过region_name 切断获取原始material name" style="whiteSpace=wrap;html=1;" parent="1" vertex="1">
          <mxGeometry x="-539.5" y="660" width="120" height="60" as="geometry" />
        </mxCell>
        <mxCell id="tamCuUPaQzQzVOTZNICU-24" value="" style="edgeStyle=orthogonalEdgeStyle;rounded=0;orthogonalLoop=1;jettySize=auto;html=1;" parent="1" source="tamCuUPaQzQzVOTZNICU-22" target="tamCuUPaQzQzVOTZNICU-23" edge="1">
          <mxGeometry relative="1" as="geometry" />
        </mxCell>
        <mxCell id="tamCuUPaQzQzVOTZNICU-22" value="write gfr" style="rounded=0;whiteSpace=wrap;html=1;" parent="1" vertex="1">
          <mxGeometry x="-264.5" width="120" height="60" as="geometry" />
        </mxCell>
        <mxCell id="tamCuUPaQzQzVOTZNICU-29" value="" style="edgeStyle=orthogonalEdgeStyle;rounded=0;orthogonalLoop=1;jettySize=auto;html=1;" parent="1" source="tamCuUPaQzQzVOTZNICU-23" target="tamCuUPaQzQzVOTZNICU-28" edge="1">
          <mxGeometry relative="1" as="geometry" />
        </mxCell>
        <mxCell id="tamCuUPaQzQzVOTZNICU-23" value="fsToMeshData::ConvertBulkAndGasRegions" style="rounded=0;whiteSpace=wrap;html=1;" parent="1" vertex="1">
          <mxGeometry x="-339.5" y="100" width="270" height="40" as="geometry" />
        </mxCell>
        <mxCell id="tamCuUPaQzQzVOTZNICU-32" value="" style="edgeStyle=orthogonalEdgeStyle;rounded=0;orthogonalLoop=1;jettySize=auto;html=1;" parent="1" source="tamCuUPaQzQzVOTZNICU-28" target="tamCuUPaQzQzVOTZNICU-31" edge="1">
          <mxGeometry relative="1" as="geometry" />
        </mxCell>
        <mxCell id="tamCuUPaQzQzVOTZNICU-33" value="true" style="edgeLabel;html=1;align=center;verticalAlign=middle;resizable=0;points=[];" parent="tamCuUPaQzQzVOTZNICU-32" vertex="1" connectable="0">
          <mxGeometry x="0.3714" y="-1" relative="1" as="geometry">
            <mxPoint as="offset" />
          </mxGeometry>
        </mxCell>
        <mxCell id="tamCuUPaQzQzVOTZNICU-38" style="edgeStyle=orthogonalEdgeStyle;rounded=0;orthogonalLoop=1;jettySize=auto;html=1;entryX=0.5;entryY=0;entryDx=0;entryDy=0;" parent="1" source="tamCuUPaQzQzVOTZNICU-28" target="tamCuUPaQzQzVOTZNICU-36" edge="1">
          <mxGeometry relative="1" as="geometry">
            <mxPoint x="15.5" y="520" as="targetPoint" />
            <Array as="points">
              <mxPoint x="-14.5" y="255" />
              <mxPoint x="-14.5" y="490" />
              <mxPoint x="-204.5" y="490" />
            </Array>
          </mxGeometry>
        </mxCell>
        <mxCell id="tamCuUPaQzQzVOTZNICU-39" value="false" style="edgeLabel;html=1;align=center;verticalAlign=middle;resizable=0;points=[];" parent="tamCuUPaQzQzVOTZNICU-38" vertex="1" connectable="0">
          <mxGeometry x="-0.2763" y="-3" relative="1" as="geometry">
            <mxPoint y="1" as="offset" />
          </mxGeometry>
        </mxCell>
        <mxCell id="tamCuUPaQzQzVOTZNICU-28" value="fs_-&amp;gt;isStructCmd() &amp;amp;&amp;amp;&amp;nbsp;ms.GetMatAlterName() not empty" style="rhombus;whiteSpace=wrap;html=1;rounded=0;" parent="1" vertex="1">
          <mxGeometry x="-312" y="200" width="215" height="110" as="geometry" />
        </mxCell>
        <mxCell id="tamCuUPaQzQzVOTZNICU-37" value="" style="edgeStyle=orthogonalEdgeStyle;rounded=0;orthogonalLoop=1;jettySize=auto;html=1;" parent="1" source="tamCuUPaQzQzVOTZNICU-31" target="tamCuUPaQzQzVOTZNICU-36" edge="1">
          <mxGeometry relative="1" as="geometry" />
        </mxCell>
        <mxCell id="tamCuUPaQzQzVOTZNICU-31" value="&lt;div&gt;string tag_group_name = ms.mater().pdbName();&lt;/div&gt;&lt;div&gt;&amp;nbsp; &amp;nbsp; &amp;nbsp; &amp;nbsp; &amp;nbsp; &amp;nbsp; ms.SetTagGroup(tag_group_name);&lt;/div&gt;" style="whiteSpace=wrap;html=1;rounded=0;" parent="1" vertex="1">
          <mxGeometry x="-324.5" y="380" width="240" height="60" as="geometry" />
        </mxCell>
        <mxCell id="tamCuUPaQzQzVOTZNICU-45" value="" style="edgeStyle=orthogonalEdgeStyle;rounded=0;orthogonalLoop=1;jettySize=auto;html=1;" parent="1" source="tamCuUPaQzQzVOTZNICU-36" target="tamCuUPaQzQzVOTZNICU-44" edge="1">
          <mxGeometry relative="1" as="geometry" />
        </mxCell>
        <mxCell id="tamCuUPaQzQzVOTZNICU-36" value="继续函数逻辑" style="whiteSpace=wrap;html=1;rounded=0;" parent="1" vertex="1">
          <mxGeometry x="-264.5" y="520" width="120" height="60" as="geometry" />
        </mxCell>
        <mxCell id="tamCuUPaQzQzVOTZNICU-42" style="edgeStyle=orthogonalEdgeStyle;rounded=0;orthogonalLoop=1;jettySize=auto;html=1;" parent="1" source="tamCuUPaQzQzVOTZNICU-40" target="tamCuUPaQzQzVOTZNICU-3" edge="1">
          <mxGeometry relative="1" as="geometry" />
        </mxCell>
        <mxCell id="tamCuUPaQzQzVOTZNICU-40" value="读取gfr文件中tag_group并调用SetTagGroup" style="whiteSpace=wrap;html=1;rounded=0;fillColor=#d5e8d4;strokeColor=#82b366;" parent="1" vertex="1">
          <mxGeometry x="-679.5" y="100" width="120" height="60" as="geometry" />
        </mxCell>
        <mxCell id="tamCuUPaQzQzVOTZNICU-44" value="存gfr保存tag_group" style="whiteSpace=wrap;html=1;rounded=0;fillColor=#d5e8d4;strokeColor=#82b366;" parent="1" vertex="1">
          <mxGeometry x="-264.5" y="660" width="120" height="60" as="geometry" />
        </mxCell>
        <mxCell id="tamCuUPaQzQzVOTZNICU-46" value="这里如果ms已有tag_group,是否需要继续执行SetTagGroup？不用管原来的tag_group" style="shape=callout;whiteSpace=wrap;html=1;perimeter=calloutPerimeter;fillColor=#fff2cc;strokeColor=#d6b656;position2=0;rotation=0;" parent="1" vertex="1">
          <mxGeometry x="-109.5" y="150" width="110" height="90" as="geometry" />
        </mxCell>
        <mxCell id="tamCuUPaQzQzVOTZNICU-47" value="&lt;span style=&quot;text-align: left;&quot;&gt;IsSupportTagGroup()&lt;/span&gt;" style="rounded=0;whiteSpace=wrap;html=1;fillColor=#f8cecc;strokeColor=#b85450;" parent="1" vertex="1">
          <mxGeometry x="-595.5" y="535" width="120" height="60" as="geometry" />
        </mxCell>
        <mxCell id="tamCuUPaQzQzVOTZNICU-48" value="&lt;div&gt;读取时直接执行这些逻辑，不需要存 tag_group:&lt;/div&gt;" style="rounded=0;whiteSpace=wrap;html=1;fillColor=#f8cecc;strokeColor=#b85450;" parent="1" vertex="1">
          <mxGeometry x="-880" y="90" width="170" height="100" as="geometry" />
        </mxCell>
        <mxCell id="tamCuUPaQzQzVOTZNICU-50" value="" style="edgeStyle=orthogonalEdgeStyle;rounded=0;orthogonalLoop=1;jettySize=auto;html=1;" parent="1" source="tamCuUPaQzQzVOTZNICU-51" target="tamCuUPaQzQzVOTZNICU-82" edge="1">
          <mxGeometry relative="1" as="geometry" />
        </mxCell>
        <mxCell id="tamCuUPaQzQzVOTZNICU-51" value="read gfr/tdr" style="rounded=0;whiteSpace=wrap;html=1;" parent="1" vertex="1">
          <mxGeometry x="487.5" y="30" width="120" height="60" as="geometry" />
        </mxCell>
        <mxCell id="tamCuUPaQzQzVOTZNICU-52" style="edgeStyle=orthogonalEdgeStyle;rounded=0;orthogonalLoop=1;jettySize=auto;html=1;exitX=0.5;exitY=1;exitDx=0;exitDy=0;" parent="1" source="tamCuUPaQzQzVOTZNICU-55" target="tamCuUPaQzQzVOTZNICU-60" edge="1">
          <mxGeometry relative="1" as="geometry" />
        </mxCell>
        <mxCell id="tamCuUPaQzQzVOTZNICU-53" style="edgeStyle=orthogonalEdgeStyle;rounded=0;orthogonalLoop=1;jettySize=auto;html=1;exitX=1;exitY=0.5;exitDx=0;exitDy=0;" parent="1" source="tamCuUPaQzQzVOTZNICU-55" edge="1">
          <mxGeometry relative="1" as="geometry">
            <mxPoint x="547.5" y="260" as="targetPoint" />
          </mxGeometry>
        </mxCell>
        <mxCell id="tamCuUPaQzQzVOTZNICU-54" value="while mi" style="edgeLabel;html=1;align=center;verticalAlign=middle;resizable=0;points=[];" parent="tamCuUPaQzQzVOTZNICU-53" vertex="1" connectable="0">
          <mxGeometry x="-0.3075" y="-3" relative="1" as="geometry">
            <mxPoint x="1" as="offset" />
          </mxGeometry>
        </mxCell>
        <mxCell id="tamCuUPaQzQzVOTZNICU-55" value="restore bulk 遍历 mi" style="rhombus;whiteSpace=wrap;html=1;" parent="1" vertex="1">
          <mxGeometry x="495" y="270" width="105" height="90" as="geometry" />
        </mxCell>
        <mxCell id="tamCuUPaQzQzVOTZNICU-56" style="edgeStyle=orthogonalEdgeStyle;rounded=0;orthogonalLoop=1;jettySize=auto;html=1;" parent="1" source="tamCuUPaQzQzVOTZNICU-57" edge="1">
          <mxGeometry relative="1" as="geometry">
            <mxPoint x="751.5" y="150" as="targetPoint" />
          </mxGeometry>
        </mxCell>
        <mxCell id="tamCuUPaQzQzVOTZNICU-57" value="mater/region alt.mater" style="rounded=0;whiteSpace=wrap;html=1;" parent="1" vertex="1">
          <mxGeometry x="691.5" y="30" width="120" height="60" as="geometry" />
        </mxCell>
        <mxCell id="tamCuUPaQzQzVOTZNICU-58" value="逻辑不变：&lt;div&gt;通过Mesh与Region类各自的SetAlterName（）控制&lt;/div&gt;" style="rounded=0;whiteSpace=wrap;html=1;" parent="1" vertex="1">
          <mxGeometry x="691.5" y="150" width="120" height="60" as="geometry" />
        </mxCell>
        <mxCell id="tamCuUPaQzQzVOTZNICU-59" style="edgeStyle=orthogonalEdgeStyle;rounded=0;orthogonalLoop=1;jettySize=auto;html=1;exitX=0.5;exitY=1;exitDx=0;exitDy=0;" parent="1" source="tamCuUPaQzQzVOTZNICU-60" edge="1">
          <mxGeometry relative="1" as="geometry">
            <mxPoint x="547.5" y="520" as="targetPoint" />
          </mxGeometry>
        </mxCell>
        <mxCell id="tamCuUPaQzQzVOTZNICU-60" value="&lt;span style=&quot;text-align: left;&quot;&gt;Mesh::RestoreMater()&lt;/span&gt;" style="rounded=0;whiteSpace=wrap;html=1;" parent="1" vertex="1">
          <mxGeometry x="487.5" y="400" width="120" height="60" as="geometry" />
        </mxCell>
        <mxCell id="tamCuUPaQzQzVOTZNICU-61" value="" style="edgeStyle=orthogonalEdgeStyle;rounded=0;orthogonalLoop=1;jettySize=auto;html=1;" parent="1" source="tamCuUPaQzQzVOTZNICU-65" target="tamCuUPaQzQzVOTZNICU-66" edge="1">
          <mxGeometry relative="1" as="geometry" />
        </mxCell>
        <mxCell id="tamCuUPaQzQzVOTZNICU-62" value="new" style="edgeLabel;html=1;align=center;verticalAlign=middle;resizable=0;points=[];" parent="tamCuUPaQzQzVOTZNICU-61" vertex="1" connectable="0">
          <mxGeometry x="0.5" y="-2" relative="1" as="geometry">
            <mxPoint as="offset" />
          </mxGeometry>
        </mxCell>
        <mxCell id="tamCuUPaQzQzVOTZNICU-63" value="" style="edgeStyle=orthogonalEdgeStyle;rounded=0;orthogonalLoop=1;jettySize=auto;html=1;" parent="1" source="tamCuUPaQzQzVOTZNICU-65" target="tamCuUPaQzQzVOTZNICU-67" edge="1">
          <mxGeometry relative="1" as="geometry" />
        </mxCell>
        <mxCell id="tamCuUPaQzQzVOTZNICU-64" value="old" style="edgeLabel;html=1;align=center;verticalAlign=middle;resizable=0;points=[];" parent="tamCuUPaQzQzVOTZNICU-63" vertex="1" connectable="0">
          <mxGeometry x="0.0957" y="2" relative="1" as="geometry">
            <mxPoint as="offset" />
          </mxGeometry>
        </mxCell>
        <mxCell id="tamCuUPaQzQzVOTZNICU-65" value="f-&amp;gt;&lt;span style=&quot;text-align: left;&quot;&gt;IsSupportTagGroup&lt;/span&gt;()&lt;div&gt;判断新旧&lt;/div&gt;" style="rhombus;whiteSpace=wrap;html=1;fillColor=#f8cecc;strokeColor=#b85450;" parent="1" vertex="1">
          <mxGeometry x="460" y="520" width="175" height="80" as="geometry" />
        </mxCell>
        <mxCell id="tamCuUPaQzQzVOTZNICU-66" value="do nothing 逻辑已经被 CheckTagGroup 接管" style="whiteSpace=wrap;html=1;" parent="1" vertex="1">
          <mxGeometry x="427.5" y="690" width="180" height="60" as="geometry" />
        </mxCell>
        <mxCell id="tamCuUPaQzQzVOTZNICU-67" value="通过region_name 切断获取原始material name" style="whiteSpace=wrap;html=1;" parent="1" vertex="1">
          <mxGeometry x="627.5" y="690" width="120" height="60" as="geometry" />
        </mxCell>
        <mxCell id="tamCuUPaQzQzVOTZNICU-68" value="" style="edgeStyle=orthogonalEdgeStyle;rounded=0;orthogonalLoop=1;jettySize=auto;html=1;" parent="1" source="tamCuUPaQzQzVOTZNICU-69" target="tamCuUPaQzQzVOTZNICU-71" edge="1">
          <mxGeometry relative="1" as="geometry" />
        </mxCell>
        <mxCell id="tamCuUPaQzQzVOTZNICU-69" value="write gfr" style="rounded=0;whiteSpace=wrap;html=1;" parent="1" vertex="1">
          <mxGeometry x="902.5" y="30" width="120" height="60" as="geometry" />
        </mxCell>
        <mxCell id="tamCuUPaQzQzVOTZNICU-70" value="" style="edgeStyle=orthogonalEdgeStyle;rounded=0;orthogonalLoop=1;jettySize=auto;html=1;" parent="1" source="tamCuUPaQzQzVOTZNICU-71" edge="1">
          <mxGeometry relative="1" as="geometry">
            <mxPoint x="962.5" y="230" as="targetPoint" />
          </mxGeometry>
        </mxCell>
        <mxCell id="tamCuUPaQzQzVOTZNICU-71" value="fsToMeshData::ConvertBulkAndGasRegions" style="rounded=0;whiteSpace=wrap;html=1;" parent="1" vertex="1">
          <mxGeometry x="827.5" y="130" width="270" height="40" as="geometry" />
        </mxCell>
        <mxCell id="tamCuUPaQzQzVOTZNICU-79" value="" style="edgeStyle=orthogonalEdgeStyle;rounded=0;orthogonalLoop=1;jettySize=auto;html=1;" parent="1" source="tamCuUPaQzQzVOTZNICU-80" target="tamCuUPaQzQzVOTZNICU-83" edge="1">
          <mxGeometry relative="1" as="geometry" />
        </mxCell>
        <mxCell id="tamCuUPaQzQzVOTZNICU-80" value="继续函数逻辑" style="whiteSpace=wrap;html=1;rounded=0;" parent="1" vertex="1">
          <mxGeometry x="902.5" y="230" width="120" height="60" as="geometry" />
        </mxCell>
        <mxCell id="tamCuUPaQzQzVOTZNICU-81" style="edgeStyle=orthogonalEdgeStyle;rounded=0;orthogonalLoop=1;jettySize=auto;html=1;" parent="1" source="tamCuUPaQzQzVOTZNICU-82" target="tamCuUPaQzQzVOTZNICU-55" edge="1">
          <mxGeometry relative="1" as="geometry" />
        </mxCell>
        <mxCell id="tamCuUPaQzQzVOTZNICU-87" style="edgeStyle=orthogonalEdgeStyle;rounded=0;orthogonalLoop=1;jettySize=auto;html=1;" parent="1" source="tamCuUPaQzQzVOTZNICU-82" target="tamCuUPaQzQzVOTZNICU-86" edge="1">
          <mxGeometry relative="1" as="geometry" />
        </mxCell>
        <mxCell id="tamCuUPaQzQzVOTZNICU-82" value="读取gfr文件中tag_group并调用SetTagGroup" style="whiteSpace=wrap;html=1;rounded=0;fillColor=#d5e8d4;strokeColor=#82b366;" parent="1" vertex="1">
          <mxGeometry x="487.5" y="130" width="120" height="60" as="geometry" />
        </mxCell>
        <mxCell id="tamCuUPaQzQzVOTZNICU-100" style="edgeStyle=orthogonalEdgeStyle;rounded=0;orthogonalLoop=1;jettySize=auto;html=1;entryX=0.5;entryY=0;entryDx=0;entryDy=0;" parent="1" source="tamCuUPaQzQzVOTZNICU-83" target="tamCuUPaQzQzVOTZNICU-97" edge="1">
          <mxGeometry relative="1" as="geometry" />
        </mxCell>
        <mxCell id="tamCuUPaQzQzVOTZNICU-83" value="存gfr保存tag_group，调用CheckTagGroup" style="whiteSpace=wrap;html=1;rounded=0;fillColor=#d5e8d4;strokeColor=#82b366;" parent="1" vertex="1">
          <mxGeometry x="902.5" y="370" width="120" height="60" as="geometry" />
        </mxCell>
        <mxCell id="tamCuUPaQzQzVOTZNICU-86" value="&lt;div&gt;SetTagGroup()内部逻辑：&lt;/div&gt;CheckTagGroup(tag_group)&lt;div&gt;&lt;span style=&quot;background-color: transparent; color: light-dark(rgb(0, 0, 0), rgb(255, 255, 255));&quot;&gt;m = mat_region;&lt;/span&gt;&lt;div&gt;material_name_ = tag_group;&lt;/div&gt;&lt;/div&gt;" style="rounded=0;whiteSpace=wrap;html=1;fillColor=#f8cecc;strokeColor=#b85450;" parent="1" vertex="1">
          <mxGeometry x="290" y="200" width="170" height="100" as="geometry" />
        </mxCell>
        <mxCell id="tamCuUPaQzQzVOTZNICU-89" value="" style="edgeStyle=orthogonalEdgeStyle;rounded=0;orthogonalLoop=1;jettySize=auto;html=1;" parent="1" source="tamCuUPaQzQzVOTZNICU-91" target="tamCuUPaQzQzVOTZNICU-92" edge="1">
          <mxGeometry relative="1" as="geometry" />
        </mxCell>
        <mxCell id="tamCuUPaQzQzVOTZNICU-90" value="true" style="edgeLabel;html=1;align=center;verticalAlign=middle;resizable=0;points=[];" parent="tamCuUPaQzQzVOTZNICU-89" vertex="1" connectable="0">
          <mxGeometry x="0.3714" y="-1" relative="1" as="geometry">
            <mxPoint as="offset" />
          </mxGeometry>
        </mxCell>
        <mxCell id="tamCuUPaQzQzVOTZNICU-91" value="f-&amp;gt;isStructCmd() &amp;amp;&amp;amp; GetMatAlterName() not empty" style="rhombus;whiteSpace=wrap;html=1;rounded=0;" parent="1" vertex="1">
          <mxGeometry x="1052.5" y="415" width="215" height="120" as="geometry" />
        </mxCell>
        <mxCell id="tamCuUPaQzQzVOTZNICU-92" value="&lt;div&gt;string tag_group_name = ms.mater().pdbName();&lt;/div&gt;&lt;div&gt;&amp;nbsp; &amp;nbsp; &amp;nbsp; &amp;nbsp; &amp;nbsp; &amp;nbsp; ms.SetTagGroup(tag_group_name);&lt;/div&gt;" style="whiteSpace=wrap;html=1;rounded=0;" parent="1" vertex="1">
          <mxGeometry x="1040" y="585" width="240" height="60" as="geometry" />
        </mxCell>
        <mxCell id="tamCuUPaQzQzVOTZNICU-101" style="edgeStyle=orthogonalEdgeStyle;rounded=0;orthogonalLoop=1;jettySize=auto;html=1;exitX=0.5;exitY=1;exitDx=0;exitDy=0;" parent="1" source="tamCuUPaQzQzVOTZNICU-97" target="tamCuUPaQzQzVOTZNICU-91" edge="1">
          <mxGeometry relative="1" as="geometry" />
        </mxCell>
        <mxCell id="tamCuUPaQzQzVOTZNICU-97" value="&lt;div&gt;&lt;span style=&quot;background-color: transparent; color: light-dark(rgb(0, 0, 0), rgb(255, 255, 255));&quot;&gt;CheckTagGroup&lt;/span&gt;()内部逻辑：&lt;/div&gt;" style="rounded=0;whiteSpace=wrap;html=1;fillColor=#f8cecc;strokeColor=#b85450;" parent="1" vertex="1">
          <mxGeometry x="1075" y="370" width="170" height="20" as="geometry" />
        </mxCell>
        <mxCell id="hF3SKkpL4-CUTdLixIOQ-1" value="0930 update:" style="shape=callout;whiteSpace=wrap;html=1;perimeter=calloutPerimeter;fillColor=#fff2cc;strokeColor=#d6b656;position2=1;rotation=0;" vertex="1" parent="1">
          <mxGeometry x="359" y="430" width="110" height="130" as="geometry" />
        </mxCell>
      </root>
    </mxGraphModel>
  </diagram>
</mxfile>
